<svg id="Outline-Expanded" enable-background="new 0 0 64 64" height="512" viewBox="0 0 64 64" width="512" xmlns="http://www.w3.org/2000/svg"><path d="m16 16h-8v-8h6v-2h-7c-.553 0-1 .447-1 1v10c0 .553.447 1 1 1h10c.553 0 1-.447 1-1v-4h-2z"/><path d="m10.707 11.293-1.414 1.414 2 2c.195.195.451.293.707.293s.512-.098.707-.293l5-5-1.414-1.414-4.293 4.293z"/><path d="m16 30h-8v-8h6v-2h-7c-.553 0-1 .447-1 1v10c0 .553.447 1 1 1h10c.553 0 1-.447 1-1v-4h-2z"/><path d="m10.707 25.293-1.414 1.414 2 2c.195.195.451.293.707.293s.512-.098.707-.293l5-5-1.414-1.414-4.293 4.293z"/><path d="m16 44h-8v-8h6v-2h-7c-.553 0-1 .447-1 1v10c0 .553.447 1 1 1h10c.553 0 1-.447 1-1v-4h-2z"/><path d="m10.707 39.293-1.414 1.414 2 2c.195.195.451.293.707.293s.512-.098.707-.293l5-5-1.414-1.414-4.293 4.293z"/><path d="m20 14h20v2h-20z"/><path d="m20 28h20v2h-20z"/><path d="m55 47c-.431 0-.813.275-.948.684l-.106.316h-9.946v-1h-2v2c0 .065.007.132.02.196l1 5c.093.467.503.804.98.804h1v2h2v-2h2v2h2v-2h2c.431 0 .812-.275.948-.684l1.773-5.316h2.279v-2zm-2.721 6h-7.46l-.6-3h9.06z"/><path d="m50 38c-1.404 0-2.747.255-4 .7v-27.7c0-.266-.105-.52-.293-.707l-8-8c-.187-.188-.441-.293-.707-.293h-34c-.553 0-1 .447-1 1v46c0 .553.447 1 1 1h35c0 6.617 5.383 12 12 12s12-5.383 12-12-5.383-12-12-12zm-46 10v-44h32.586l6 6h-4.586v-3h-2v4c0 .553.447 1 1 1h7v27.623c-1.604.931-2.977 2.216-4 3.757v-1.38h-20v2h19.623c-.706 1.216-1.2 2.564-1.443 4zm46 12c-5.514 0-10-4.486-10-10s4.486-10 10-10 10 4.486 10 10-4.486 10-10 10z"/></svg>