<svg id="Capa_1" enable-background="new 0 0 512 512" height="512" viewBox="0 0 512 512" width="512" xmlns="http://www.w3.org/2000/svg"><g><g><path d="m504.5 27.274h-62.63c-4.142 0-7.5 3.358-7.5 7.5s3.358 7.5 7.5 7.5h55.13v55.13c0 4.142 3.358 7.5 7.5 7.5s7.5-3.358 7.5-7.5v-62.63c0-4.142-3.358-7.5-7.5-7.5z"/><path d="m7.5 104.904c4.142 0 7.5-3.358 7.5-7.5v-55.13h55.13c4.142 0 7.5-3.358 7.5-7.5s-3.358-7.5-7.5-7.5h-62.63c-4.142 0-7.5 3.358-7.5 7.5v62.63c0 4.142 3.358 7.5 7.5 7.5z"/><path d="m504.5 407.096c-4.142 0-7.5 3.358-7.5 7.5v55.13h-55.13c-4.142 0-7.5 3.358-7.5 7.5s3.358 7.5 7.5 7.5h62.63c4.142 0 7.5-3.358 7.5-7.5v-62.63c0-4.142-3.358-7.5-7.5-7.5z"/><path d="m70.13 469.726h-55.13v-55.13c0-4.142-3.358-7.5-7.5-7.5s-7.5 3.358-7.5 7.5v62.63c0 4.142 3.358 7.5 7.5 7.5h62.63c4.142 0 7.5-3.358 7.5-7.5s-3.358-7.5-7.5-7.5z"/><path d="m351.965 337.395c-4.142 0-7.5 3.358-7.5 7.5v12.122c0 4.142 3.358 7.5 7.5 7.5s7.5-3.358 7.5-7.5v-12.122c0-4.143-3.358-7.5-7.5-7.5z"/><path d="m313.579 337.395c-4.142 0-7.5 3.358-7.5 7.5v12.122c0 4.142 3.358 7.5 7.5 7.5s7.5-3.358 7.5-7.5v-12.122c0-4.143-3.358-7.5-7.5-7.5z"/><path d="m275.193 337.395c-4.142 0-7.5 3.358-7.5 7.5v12.122c0 4.142 3.358 7.5 7.5 7.5s7.5-3.358 7.5-7.5v-12.122c0-4.143-3.358-7.5-7.5-7.5z"/><path d="m236.807 337.395c-4.142 0-7.5 3.358-7.5 7.5v12.122c0 4.142 3.358 7.5 7.5 7.5s7.5-3.358 7.5-7.5v-12.122c0-4.143-3.358-7.5-7.5-7.5z"/><path d="m198.421 337.395c-4.142 0-7.5 3.358-7.5 7.5v12.122c0 4.142 3.358 7.5 7.5 7.5s7.5-3.358 7.5-7.5v-12.122c0-4.143-3.358-7.5-7.5-7.5z"/><path d="m160.035 337.395c-4.142 0-7.5 3.358-7.5 7.5v12.122c0 4.142 3.358 7.5 7.5 7.5s7.5-3.358 7.5-7.5v-12.122c0-4.143-3.358-7.5-7.5-7.5z"/><path d="m504.5 232.337h-38.97v-151.097c0-4.142-3.358-7.5-7.5-7.5h-339.63c-4.142 0-7.5 3.358-7.5 7.5s3.358 7.5 7.5 7.5h332.13v143.597h-17.32v-116.147c0-4.142-3.358-7.5-7.5-7.5h-339.42c-4.142 0-7.5 3.358-7.5 7.5v116.147h-17.32v-143.597h21.83c4.142 0 7.5-3.358 7.5-7.5s-3.358-7.5-7.5-7.5h-29.33c-4.142 0-7.5 3.358-7.5 7.5v151.097h-38.97c-4.142 0-7.5 3.358-7.5 7.5v32.325c0 4.142 3.358 7.5 7.5 7.5h38.97v151.098c0 4.142 3.358 7.5 7.5 7.5h404.06c4.142 0 7.5-3.358 7.5-7.5v-151.097h38.97c4.142 0 7.5-3.358 7.5-7.5v-32.325c0-4.143-3.358-7.501-7.5-7.501zm-410.71-108.647h324.42v108.647h-20.36v-77.357c0-4.142-3.358-7.5-7.5-7.5s-7.5 3.358-7.5 7.5v77.357h-23.38v-77.357c0-4.142-3.358-7.5-7.5-7.5s-7.5 3.358-7.5 7.5v77.357h-23.39v-77.357c0-4.142-3.358-7.5-7.5-7.5s-7.5 3.358-7.5 7.5v77.357h-23.39v-77.357c0-4.142-3.358-7.5-7.5-7.5s-7.5 3.358-7.5 7.5v77.357h-23.38v-77.357c0-4.142-3.358-7.5-7.5-7.5s-7.5 3.358-7.5 7.5v77.357h-23.39v-77.357c0-4.142-3.358-7.5-7.5-7.5s-7.5 3.358-7.5 7.5v77.357h-23.39v-77.357c0-4.142-3.358-7.5-7.5-7.5s-7.5 3.358-7.5 7.5v77.357h-23.38v-77.357c0-4.142-3.358-7.5-7.5-7.5s-7.5 3.358-7.5 7.5v77.357h-20.36zm356.74 299.57h-389.06v-143.597h17.32v116.147c0 4.142 3.358 7.5 7.5 7.5h276.93c4.142 0 7.5-3.358 7.5-7.5s-3.358-7.5-7.5-7.5h-269.43v-108.647h20.36v77.357c0 4.142 3.358 7.5 7.5 7.5s7.5-3.358 7.5-7.5v-77.357h23.38v26.847c0 4.142 3.358 7.5 7.5 7.5s7.5-3.358 7.5-7.5v-26.847h23.39v26.847c0 4.142 3.358 7.5 7.5 7.5s7.5-3.358 7.5-7.5v-26.847h23.39v26.847c0 4.142 3.358 7.5 7.5 7.5s7.5-3.358 7.5-7.5v-26.847h23.38v26.847c0 4.142 3.358 7.5 7.5 7.5s7.5-3.358 7.5-7.5v-26.847h23.39v26.847c0 4.142 3.358 7.5 7.5 7.5s7.5-3.358 7.5-7.5v-26.847h23.39v26.847c0 4.142 3.358 7.5 7.5 7.5s7.5-3.358 7.5-7.5v-26.847h23.38v77.357c0 4.142 3.358 7.5 7.5 7.5s7.5-3.358 7.5-7.5v-77.357h20.36v108.647h-19.89c-4.142 0-7.5 3.358-7.5 7.5s3.358 7.5 7.5 7.5h27.39c4.142 0 7.5-3.358 7.5-7.5v-116.147h17.32zm46.47-158.597h-482v-17.325h482z"/></g></g></svg>