<?xml version="1.0" encoding="iso-8859-1"?>
<!-- Generator: Adobe Illustrator 19.0.0, SVG Export Plug-In . SVG Version: 6.00 Build 0)  -->
<svg version="1.1" id="Capa_1" xmlns="http://www.w3.org/2000/svg" xmlns:xlink="http://www.w3.org/1999/xlink" x="0px" y="0px"
	 viewBox="0 0 512 512" style="enable-background:new 0 0 512 512;" xml:space="preserve">
<g>
	<g>
		<path d="M512,422V32h-60V0H316c-24.507,0-46.305,11.814-60,30.047C242.305,11.814,220.507,0,196,0H60v32H0v390h180v30
			c0,16.542-13.458,30-30,30H75v30h362v-30h-75c-16.542,0-30-13.458-30-30v-30H512z M452,62h30v270H273.58
			c6.192-17.459,22.865-30,42.42-30h136V62z M271,75c0-24.813,20.187-45,45-45h106v242H316c-16.869,0-32.457,5.6-45,15.035V75z
			 M90,30h106c24.813,0,45,20.187,45,45v212.035C228.457,277.6,212.869,272,196,272H90V30z M30,62h30v240h136
			c19.555,0,36.228,12.541,42.42,30H30V62z M201.928,482c5.123-8.832,8.072-19.075,8.072-30v-30h92v30
			c0,10.925,2.949,21.168,8.072,30H201.928z M30,392v-30h452v30H30z"/>
	</g>
</g>
<g>
	<g>
		<path d="M120,76v90h90V76H120z M180,136h-30v-30h30V136z"/>
	</g>
</g>
<g>
	<g>
		<rect x="120" y="196" width="90" height="30"/>
	</g>
</g>
<g>
	<g>
		<path d="M302,76v90h90V76H302z M362,136h-30v-30h30V136z"/>
	</g>
</g>
<g>
	<g>
		<rect x="302" y="196" width="90" height="30"/>
	</g>
</g>
<g>
</g>
<g>
</g>
<g>
</g>
<g>
</g>
<g>
</g>
<g>
</g>
<g>
</g>
<g>
</g>
<g>
</g>
<g>
</g>
<g>
</g>
<g>
</g>
<g>
</g>
<g>
</g>
<g>
</g>
</svg>
