<svg id="Layer_1" enable-background="new 0 0 512 512" height="512" viewBox="0 0 512 512" width="512" xmlns="http://www.w3.org/2000/svg"><g><path d="m256 512c-68.38 0-132.667-26.629-181.02-74.98-48.351-48.352-74.98-112.64-74.98-181.02s26.629-132.668 74.98-181.02c48.353-48.351 112.64-74.98 181.02-74.98s132.668 26.629 181.02 74.98 74.98 112.64 74.98 181.02-26.629 132.668-74.98 181.02-112.64 74.98-181.02 74.98zm0-497c-64.374 0-124.894 25.068-170.413 70.587s-70.587 106.039-70.587 170.413 25.068 124.894 70.587 170.413 106.039 70.587 170.413 70.587 124.895-25.068 170.413-70.587 70.587-106.039 70.587-170.413-25.068-124.895-70.587-170.413-106.039-70.587-170.413-70.587z" fill="#9ee8c0"/><g><g><g><g><path d="m95.026 285.745s15.372-23.069 50.302-34.967c33.107-11.278 76.105-3.697 86.775 31.523 9.776 32.271-17.034 65.223-50.971 61.154-45.853-5.497-45.992-52.19-86.106-57.71" fill="#9ee8c0"/></g></g><g><g><g><path d="m403.503 129.535c-30.352-11.482-70.798-17.754-107.266-6.993-59.066 17.429-84.18 79.254-62.667 114.188 22.001 35.724 73.13 42.952 102.908 8.043 30.434-35.677 12.612-76.36 67.025-115.238" fill="#9ee8c0"/></g></g><path d="m317.056 118.211c16.69 1.95 32.618 6.092 46.447 11.324-54.413 38.877-36.591 79.561-67.025 115.238-8.166 9.573-17.939 15.97-28.276 19.487 22.912 7.646 49.733 2.25 68.276-19.487 30.434-35.677 12.612-76.361 67.025-115.238-24.667-9.331-56-15.221-86.447-11.324z" fill="#8adeb0"/><path d="m251.171 369.103v45.592c0 4.107 3.166 7.688 7.271 7.81 4.248.126 7.729-3.278 7.729-7.497v-142.246c0-63.591 31.596-80.731 33.054-81.486 3.677-1.847 5.182-6.319 3.36-10.017-1.831-3.715-6.323-5.246-10.043-3.412-1.688.832-41.371 21.233-41.371 94.915v60.915c-17.942-27.811-48.237-50.246-77.597-55.011-4.094-.659-7.941 2.113-8.605 6.202-.664 4.088 2.113 7.94 6.202 8.604 32.607 5.292 67.905 37.559 78.22 71.097.437 1.419.949 2.814 1.595 4.151z" fill="#7ccfa1"/></g></g></g></g></svg>